<?xml version="1.0" encoding="UTF-8"?>
<svg width="300" height="300" viewBox="0 0 300 300" xmlns="http://www.w3.org/2000/svg">
  <defs>
    <linearGradient id="lightBulbGradient" x1="0%" y1="0%" x2="100%" y2="100%">
      <stop offset="0%" stop-color="#6366f1" />
      <stop offset="100%" stop-color="#4f46e5" />
    </linearGradient>
    <filter id="glow" x="-20%" y="-20%" width="140%" height="140%">
      <feGaussianBlur stdDeviation="5" result="blur" />
      <feComposite in="SourceGraphic" in2="blur" operator="over" />
    </filter>
    <filter id="shadow" x="-10%" y="-10%" width="120%" height="140%">
      <feDropShadow dx="0" dy="4" stdDeviation="4" flood-color="#000" flood-opacity="0.2" />
    </filter>
  </defs>
  
  <!-- 灯泡底座 -->
  <path d="M140,220 L160,220 L165,260 Q165,270 155,270 L145,270 Q135,270 135,260 Z" fill="#4f46e5" filter="url(#shadow)" />
  
  <!-- 灯泡连接部分 -->
  <rect x="140" y="210" width="20" height="15" rx="2" fill="#4f46e5" />
  
  <!-- 灯泡主体 -->
  <circle cx="150" cy="130" r="80" fill="url(#lightBulbGradient)" filter="url(#shadow)" />
  
  <!-- 灯泡内部光芒 -->
  <circle cx="150" cy="130" r="70" fill="#ffffff" opacity="0.2" />
  <circle cx="150" cy="130" r="60" fill="#ffffff" opacity="0.1" />
  
  <!-- 灯泡高光 -->
  <circle cx="130" cy="110" r="15" fill="#ffffff" opacity="0.4" />
  <circle cx="120" cy="100" r="8" fill="#ffffff" opacity="0.6" />
  
  <!-- 灯丝 -->
  <path d="M140,130 Q150,110 160,130 Q170,150 180,130" stroke="#ffffff" stroke-width="3" fill="none" opacity="0.7" />
  
  <!-- 光芒效果 -->
  <g filter="url(#glow)">
    <path d="M150,50 L150,30" stroke="#ffffff" stroke-width="2" opacity="0.7" />
    <path d="M190,70 L205,55" stroke="#ffffff" stroke-width="2" opacity="0.7" />
    <path d="M210,130 L230,130" stroke="#ffffff" stroke-width="2" opacity="0.7" />
    <path d="M190,190 L205,205" stroke="#ffffff" stroke-width="2" opacity="0.7" />
    <path d="M110,70 L95,55" stroke="#ffffff" stroke-width="2" opacity="0.7" />
    <path d="M90,130 L70,130" stroke="#ffffff" stroke-width="2" opacity="0.7" />
    <path d="M110,190 L95,205" stroke="#ffffff" stroke-width="2" opacity="0.7" />
  </g>
</svg>
