<?xml version="1.0" encoding="UTF-8"?>
<svg width="600" height="400" viewBox="0 0 600 400" xmlns="http://www.w3.org/2000/svg">
  <rect width="600" height="400" fill="#f8f9fa"/>
  <g transform="translate(100, 50)">
    <!-- Crossword grid -->
    <rect x="0" y="0" width="400" height="300" fill="#ffffff" stroke="#333333" stroke-width="2"/>
    
    <!-- Horizontal lines -->
    <line x1="0" y1="50" x2="400" y2="50" stroke="#333333" stroke-width="1"/>
    <line x1="0" y1="100" x2="400" y2="100" stroke="#333333" stroke-width="1"/>
    <line x1="0" y1="150" x2="400" y2="150" stroke="#333333" stroke-width="1"/>
    <line x1="0" y1="200" x2="400" y2="200" stroke="#333333" stroke-width="1"/>
    <line x1="0" y1="250" x2="400" y2="250" stroke="#333333" stroke-width="1"/>
    
    <!-- Vertical lines -->
    <line x1="50" y1="0" x2="50" y2="300" stroke="#333333" stroke-width="1"/>
    <line x1="100" y1="0" x2="100" y2="300" stroke="#333333" stroke-width="1"/>
    <line x1="150" y1="0" x2="150" y2="300" stroke="#333333" stroke-width="1"/>
    <line x1="200" y1="0" x2="200" y2="300" stroke="#333333" stroke-width="1"/>
    <line x1="250" y1="0" x2="250" y2="300" stroke="#333333" stroke-width="1"/>
    <line x1="300" y1="0" x2="300" y2="300" stroke="#333333" stroke-width="1"/>
    <line x1="350" y1="0" x2="350" y2="300" stroke="#333333" stroke-width="1"/>
    
    <!-- Black squares -->
    <rect x="0" y="0" width="50" height="50" fill="#333333"/>
    <rect x="150" y="0" width="50" height="50" fill="#333333"/>
    <rect x="300" y="0" width="50" height="50" fill="#333333"/>
    <rect x="100" y="50" width="50" height="50" fill="#333333"/>
    <rect x="250" y="50" width="50" height="50" fill="#333333"/>
    <rect x="50" y="100" width="50" height="50" fill="#333333"/>
    <rect x="200" y="100" width="50" height="50" fill="#333333"/>
    <rect x="350" y="100" width="50" height="50" fill="#333333"/>
    <rect x="0" y="150" width="50" height="50" fill="#333333"/>
    <rect x="150" y="150" width="50" height="50" fill="#333333"/>
    <rect x="300" y="150" width="50" height="50" fill="#333333"/>
    <rect x="100" y="200" width="50" height="50" fill="#333333"/>
    <rect x="250" y="200" width="50" height="50" fill="#333333"/>
    <rect x="50" y="250" width="50" height="50" fill="#333333"/>
    <rect x="200" y="250" width="50" height="50" fill="#333333"/>
    <rect x="350" y="250" width="50" height="50" fill="#333333"/>
    
    <!-- Sample letters -->
    <text x="25" y="125" font-family="Arial" font-size="24" font-weight="bold" text-anchor="middle" dominant-baseline="middle">C</text>
    <text x="75" y="75" font-family="Arial" font-size="24" font-weight="bold" text-anchor="middle" dominant-baseline="middle">R</text>
    <text x="125" y="125" font-family="Arial" font-size="24" font-weight="bold" text-anchor="middle" dominant-baseline="middle">O</text>
    <text x="175" y="75" font-family="Arial" font-size="24" font-weight="bold" text-anchor="middle" dominant-baseline="middle">S</text>
    <text x="225" y="25" font-family="Arial" font-size="24" font-weight="bold" text-anchor="middle" dominant-baseline="middle">S</text>
    <text x="225" y="75" font-family="Arial" font-size="24" font-weight="bold" text-anchor="middle" dominant-baseline="middle">W</text>
    <text x="275" y="125" font-family="Arial" font-size="24" font-weight="bold" text-anchor="middle" dominant-baseline="middle">O</text>
    <text x="325" y="75" font-family="Arial" font-size="24" font-weight="bold" text-anchor="middle" dominant-baseline="middle">R</text>
    <text x="375" y="25" font-family="Arial" font-size="24" font-weight="bold" text-anchor="middle" dominant-baseline="middle">D</text>
    <text x="75" y="175" font-family="Arial" font-size="24" font-weight="bold" text-anchor="middle" dominant-baseline="middle">P</text>
    <text x="125" y="225" font-family="Arial" font-size="24" font-weight="bold" text-anchor="middle" dominant-baseline="middle">U</text>
    <text x="175" y="175" font-family="Arial" font-size="24" font-weight="bold" text-anchor="middle" dominant-baseline="middle">Z</text>
    <text x="225" y="225" font-family="Arial" font-size="24" font-weight="bold" text-anchor="middle" dominant-baseline="middle">Z</text>
    <text x="275" y="175" font-family="Arial" font-size="24" font-weight="bold" text-anchor="middle" dominant-baseline="middle">L</text>
    <text x="325" y="225" font-family="Arial" font-size="24" font-weight="bold" text-anchor="middle" dominant-baseline="middle">E</text>
    <text x="375" y="175" font-family="Arial" font-size="24" font-weight="bold" text-anchor="middle" dominant-baseline="middle">S</text>
    
    <!-- Numbers -->
    <text x="7" y="67" font-family="Arial" font-size="10" text-anchor="start" dominant-baseline="hanging">1</text>
    <text x="57" y="17" font-family="Arial" font-size="10" text-anchor="start" dominant-baseline="hanging">2</text>
    <text x="107" y="17" font-family="Arial" font-size="10" text-anchor="start" dominant-baseline="hanging">3</text>
    <text x="207" y="17" font-family="Arial" font-size="10" text-anchor="start" dominant-baseline="hanging">4</text>
    <text x="257" y="17" font-family="Arial" font-size="10" text-anchor="start" dominant-baseline="hanging">5</text>
    <text x="357" y="17" font-family="Arial" font-size="10" text-anchor="start" dominant-baseline="hanging">6</text>
  </g>
</svg>
